<svg xmlns="http://www.w3.org/2000/svg" viewBox="0 0 917.6 352" width="917.6" height="352" fill="#000" role="img" aria-label="Vox Austral">
  <title>Vox Austral</title>
  <path d="M151.80 50.60h4.40v4.40h-4.40zM173.80 50.60h8.80v4.40h-8.80zM125.40 55.00h4.40v4.40h-4.40zM156.20 55.00h4.40v4.40h-4.40zM173.80 55.00h8.80v4.40h-8.80zM204.60 55.00h4.40v4.40h-4.40zM226.60 55.00h4.40v4.40h-4.40zM129.80 59.40h4.40v4.40h-4.40zM156.20 59.40h8.80v4.40h-8.80zM173.80 59.40h8.80v4.40h-8.80zM204.60 59.40h4.40v4.40h-4.40zM222.20 59.40h4.40v4.40h-4.40zM129.80 63.80h4.40v4.40h-4.40zM160.60 63.80h4.40v4.40h-4.40zM173.80 63.80h8.80v4.40h-8.80zM204.60 63.80h4.40v4.40h-4.40zM222.20 63.80h4.40v4.40h-4.40zM107.80 68.20h4.40v4.40h-4.40zM129.80 68.20h8.80v4.40h-8.80zM160.60 68.20h8.80v4.40h-8.80zM173.80 68.20h8.80v4.40h-8.80zM204.60 68.20h4.40v4.40h-4.40zM217.80 68.20h8.80v4.40h-8.80zM248.60 68.20h4.40v4.40h-4.40zM112.20 72.60h4.40v4.40h-4.40zM129.80 72.60h8.80v4.40h-8.80zM160.60 72.60h8.80v4.40h-8.80zM173.80 72.60h8.80v4.40h-8.80zM204.60 72.60h4.40v4.40h-4.40zM217.80 72.60h8.80v4.40h-8.80zM248.60 72.60h4.40v4.40h-4.40zM116.60 77.00h8.80v4.40h-8.80zM134.20 77.00h8.80v4.40h-8.80zM160.60 77.00h8.80v4.40h-8.80zM173.80 77.00h8.80v4.40h-8.80zM200.20 77.00h8.80v4.40h-8.80zM213.40 77.00h8.80v4.40h-8.80zM248.60 77.00h4.40v4.40h-4.40zM121.00 81.40h8.80v4.40h-8.80zM134.20 81.40h8.80v4.40h-8.80zM160.60 81.40h8.80v4.40h-8.80zM173.80 81.40h8.80v4.40h-8.80zM200.20 81.40h8.80v4.40h-8.80zM213.40 81.40h8.80v4.40h-8.80zM244.20 81.40h8.80v4.40h-8.80zM85.80 85.80h4.40v4.40h-4.40zM121.00 85.80h8.80v4.40h-8.80zM134.20 85.80h13.20v4.40h-13.20zM160.60 85.80h8.80v4.40h-8.80zM173.80 85.80h8.80v4.40h-8.80zM200.20 85.80h4.40v4.40h-4.40zM209.00 85.80h13.20v4.40h-13.20zM244.20 85.80h4.40v4.40h-4.40zM266.20 85.80h4.40v4.40h-4.40zM90.20 90.20h8.80v4.40h-8.80zM125.40 90.20h8.80v4.40h-8.80zM138.60 90.20h8.80v4.40h-8.80zM160.60 90.20h8.80v4.40h-8.80zM173.80 90.20h8.80v4.40h-8.80zM195.80 90.20h8.80v4.40h-8.80zM209.00 90.20h8.80v4.40h-8.80zM239.80 90.20h8.80v4.40h-8.80zM257.40 90.20h8.80v4.40h-8.80zM90.20 94.60h13.20v4.40h-13.20zM125.40 94.60h8.80v4.40h-8.80zM138.60 94.60h13.20v4.40h-13.20zM160.60 94.60h8.80v4.40h-8.80zM173.80 94.60h8.80v4.40h-8.80zM195.80 94.60h22.00v4.40h-22.00zM235.40 94.60h8.80v4.40h-8.80zM253.00 94.60h13.20v4.40h-13.20zM94.60 99.00h13.20v4.40h-13.20zM129.80 99.00h22.00v4.40h-22.00zM160.60 99.00h8.80v4.40h-8.80zM173.80 99.00h8.80v4.40h-8.80zM191.40 99.00h8.80v4.40h-8.80zM204.60 99.00h13.20v4.40h-13.20zM231.00 99.00h8.80v4.40h-8.80zM248.60 99.00h13.20v4.40h-13.20zM68.20 103.40h17.60v4.40h-17.60zM99.00 103.40h13.20v4.40h-13.20zM129.80 103.40h8.80v4.40h-8.80zM143.00 103.40h13.20v4.40h-13.20zM160.60 103.40h8.80v4.40h-8.80zM173.80 103.40h8.80v4.40h-8.80zM191.40 103.40h22.00v4.40h-22.00zM231.00 103.40h8.80v4.40h-8.80zM244.20 103.40h13.20v4.40h-13.20zM81.40 107.80h13.20v4.40h-13.20zM103.40 107.80h13.20v4.40h-13.20zM134.20 107.80h22.00v4.40h-22.00zM160.60 107.80h8.80v4.40h-8.80zM173.80 107.80h8.80v4.40h-8.80zM187.00 107.80h26.40v4.40h-26.40zM222.20 107.80h13.20v4.40h-13.20zM239.80 107.80h13.20v4.40h-13.20zM283.80 107.80h4.40v4.40h-4.40zM90.20 112.20h8.80v4.40h-8.80zM107.80 112.20h13.20v4.40h-13.20zM134.20 112.20h35.20v4.40h-35.20zM173.80 112.20h8.80v4.40h-8.80zM187.00 112.20h26.40v4.40h-26.40zM217.80 112.20h13.20v4.40h-13.20zM235.40 112.20h13.20v4.40h-13.20zM279.40 112.20h4.40v4.40h-4.40zM94.60 116.60h13.20v4.40h-13.20zM112.20 116.60h17.60v4.40h-17.60zM134.20 116.60h74.80v4.40h-74.80zM213.40 116.60h30.80v4.40h-30.80zM275.00 116.60h4.40v4.40h-4.40zM99.00 121.00h13.20v4.40h-13.20zM116.60 121.00h13.20v4.40h-13.20zM138.60 121.00h83.60v4.40h-83.60zM226.60 121.00h13.20v4.40h-13.20zM266.20 121.00h13.20v4.40h-13.20zM55.00 125.40h4.40v4.40h-4.40zM107.80 125.40h26.40v4.40h-26.40zM138.60 125.40h79.20v4.40h-79.20zM222.20 125.40h17.60v4.40h-17.60zM257.40 125.40h17.60v4.40h-17.60zM297.00 125.40h4.40v4.40h-4.40zM59.40 129.80h17.60v4.40h-17.60zM107.80 129.80h13.20v4.40h-13.20zM125.40 129.80h105.60v4.40h-105.60zM248.60 129.80h17.60v4.40h-17.60zM279.40 129.80h17.60v4.40h-17.60zM68.20 134.20h22.00v4.40h-22.00zM112.20 134.20h13.20v4.40h-13.20zM129.80 134.20h96.80v4.40h-96.80zM235.40 134.20h22.00v4.40h-22.00zM266.20 134.20h22.00v4.40h-22.00zM77.00 138.60h26.40v4.40h-26.40zM116.60 138.60h48.40v4.40h-48.40zM169.40 138.60h22.00v4.40h-22.00zM195.80 138.60h52.80v4.40h-52.80zM253.00 138.60h26.40v4.40h-26.40zM85.80 143.00h30.80v4.40h-30.80zM121.00 143.00h30.80v4.40h-30.80zM165.00 143.00h30.80v4.40h-30.80zM209.00 143.00h61.60v4.40h-61.60zM55.00 147.40h30.80v4.40h-30.80zM94.60 147.40h44.00v4.40h-44.00zM151.80 147.40h57.20v4.40h-57.20zM222.20 147.40h39.60v4.40h-39.60zM77.00 151.80h22.00v4.40h-22.00zM103.40 151.80h48.40v4.40h-48.40zM156.20 151.80h44.00v4.40h-44.00zM204.60 151.80h48.40v4.40h-48.40zM301.40 151.80h4.40v4.40h-4.40zM90.20 156.20h57.20v4.40h-57.20zM160.60 156.20h35.20v4.40h-35.20zM209.00 156.20h35.20v4.40h-35.20zM292.60 156.20h8.80v4.40h-8.80zM99.00 160.60h48.40v4.40h-48.40zM160.60 160.60h35.20v4.40h-35.20zM209.00 160.60h88.00v4.40h-88.00zM107.80 165.00h39.60v4.40h-39.60zM151.80 165.00h4.40v4.40h-4.40zM160.60 165.00h35.20v4.40h-35.20zM200.20 165.00h4.40v4.40h-4.40zM209.00 165.00h79.20v4.40h-79.20zM116.60 169.40h30.80v4.40h-30.80zM151.80 169.40h4.40v4.40h-4.40zM160.60 169.40h35.20v4.40h-35.20zM200.20 169.40h4.40v4.40h-4.40zM209.00 169.40h30.80v4.40h-30.80zM50.60 173.80h101.20v4.40h-101.20zM156.20 173.80h22.00v4.40h-22.00zM182.60 173.80h17.60v4.40h-17.60zM204.60 173.80h101.20v4.40h-101.20zM50.60 178.20h127.60v4.40h-127.60zM182.60 178.20h123.20v4.40h-123.20zM116.60 182.60h61.60v4.40h-61.60zM182.60 182.60h57.20v4.40h-57.20zM68.20 187.00h110.00v4.40h-110.00zM182.60 187.00h66.00v4.40h-66.00zM59.40 191.40h114.40v4.40h-114.40zM187.00 191.40h70.40v4.40h-70.40zM55.00 195.80h8.80v4.40h-8.80zM112.20 195.80h154.00v4.40h-154.00zM50.60 200.20h4.40v4.40h-4.40zM103.40 200.20h149.60v4.40h-149.60zM257.40 200.20h22.00v4.40h-22.00zM94.60 204.60h167.20v4.40h-167.20zM270.60 204.60h30.80v4.40h-30.80zM85.80 209.00h74.80v4.40h-74.80zM165.00 209.00h30.80v4.40h-30.80zM200.20 209.00h35.20v4.40h-35.20zM239.80 209.00h30.80v4.40h-30.80zM77.00 213.40h26.40v4.40h-26.40zM107.80 213.40h57.20v4.40h-57.20zM173.80 213.40h13.20v4.40h-13.20zM195.80 213.40h44.00v4.40h-44.00zM253.00 213.40h26.40v4.40h-26.40zM68.20 217.80h22.00v4.40h-22.00zM99.00 217.80h22.00v4.40h-22.00zM129.80 217.80h44.00v4.40h-44.00zM187.00 217.80h39.60v4.40h-39.60zM231.00 217.80h13.20v4.40h-13.20zM266.20 217.80h22.00v4.40h-22.00zM59.40 222.20h17.60v4.40h-17.60zM90.20 222.20h17.60v4.40h-17.60zM125.40 222.20h105.60v4.40h-105.60zM235.40 222.20h13.20v4.40h-13.20zM279.40 222.20h17.60v4.40h-17.60zM55.00 226.60h4.40v4.40h-4.40zM81.40 226.60h17.60v4.40h-17.60zM116.60 226.60h17.60v4.40h-17.60zM138.60 226.60h79.20v4.40h-79.20zM222.20 226.60h26.40v4.40h-26.40zM297.00 226.60h4.40v4.40h-4.40zM77.00 231.00h13.20v4.40h-13.20zM116.60 231.00h13.20v4.40h-13.20zM134.20 231.00h83.60v4.40h-83.60zM226.60 231.00h13.20v4.40h-13.20zM244.20 231.00h13.20v4.40h-13.20zM77.00 235.40h4.40v4.40h-4.40zM112.20 235.40h30.80v4.40h-30.80zM147.40 235.40h74.80v4.40h-74.80zM226.60 235.40h17.60v4.40h-17.60zM248.60 235.40h13.20v4.40h-13.20zM72.60 239.80h4.40v4.40h-4.40zM107.80 239.80h13.20v4.40h-13.20zM125.40 239.80h13.20v4.40h-13.20zM143.00 239.80h26.40v4.40h-26.40zM173.80 239.80h8.80v4.40h-8.80zM187.00 239.80h35.20v4.40h-35.20zM235.40 239.80h13.20v4.40h-13.20zM257.40 239.80h8.80v4.40h-8.80zM68.20 244.20h4.40v4.40h-4.40zM103.40 244.20h13.20v4.40h-13.20zM121.00 244.20h13.20v4.40h-13.20zM143.00 244.20h26.40v4.40h-26.40zM173.80 244.20h8.80v4.40h-8.80zM187.00 244.20h8.80v4.40h-8.80zM200.20 244.20h22.00v4.40h-22.00zM239.80 244.20h13.20v4.40h-13.20zM261.80 244.20h13.20v4.40h-13.20zM99.00 248.60h13.20v4.40h-13.20zM116.60 248.60h8.80v4.40h-8.80zM143.00 248.60h22.00v4.40h-22.00zM173.80 248.60h8.80v4.40h-8.80zM187.00 248.60h8.80v4.40h-8.80zM200.20 248.60h13.20v4.40h-13.20zM217.80 248.60h8.80v4.40h-8.80zM244.20 248.60h13.20v4.40h-13.20zM270.60 248.60h17.60v4.40h-17.60zM94.60 253.00h13.20v4.40h-13.20zM116.60 253.00h8.80v4.40h-8.80zM138.60 253.00h13.20v4.40h-13.20zM156.20 253.00h8.80v4.40h-8.80zM173.80 253.00h8.80v4.40h-8.80zM187.00 253.00h8.80v4.40h-8.80zM204.60 253.00h22.00v4.40h-22.00zM248.60 253.00h13.20v4.40h-13.20zM90.20 257.40h13.20v4.40h-13.20zM112.20 257.40h8.80v4.40h-8.80zM138.60 257.40h22.00v4.40h-22.00zM173.80 257.40h8.80v4.40h-8.80zM187.00 257.40h8.80v4.40h-8.80zM204.60 257.40h13.20v4.40h-13.20zM222.20 257.40h8.80v4.40h-8.80zM253.00 257.40h13.20v4.40h-13.20zM90.20 261.80h8.80v4.40h-8.80zM107.80 261.80h8.80v4.40h-8.80zM138.60 261.80h8.80v4.40h-8.80zM151.80 261.80h8.80v4.40h-8.80zM173.80 261.80h8.80v4.40h-8.80zM187.00 261.80h8.80v4.40h-8.80zM209.00 261.80h8.80v4.40h-8.80zM222.20 261.80h8.80v4.40h-8.80zM257.40 261.80h8.80v4.40h-8.80zM85.80 266.20h4.40v4.40h-4.40zM107.80 266.20h4.40v4.40h-4.40zM134.20 266.20h13.20v4.40h-13.20zM151.80 266.20h4.40v4.40h-4.40zM173.80 266.20h8.80v4.40h-8.80zM187.00 266.20h8.80v4.40h-8.80zM209.00 266.20h13.20v4.40h-13.20zM226.60 266.20h8.80v4.40h-8.80zM266.20 266.20h4.40v4.40h-4.40zM103.40 270.60h8.80v4.40h-8.80zM134.20 270.60h8.80v4.40h-8.80zM147.40 270.60h8.80v4.40h-8.80zM173.80 270.60h8.80v4.40h-8.80zM187.00 270.60h8.80v4.40h-8.80zM213.40 270.60h8.80v4.40h-8.80zM226.60 270.60h8.80v4.40h-8.80zM103.40 275.00h4.40v4.40h-4.40zM134.20 275.00h8.80v4.40h-8.80zM147.40 275.00h8.80v4.40h-8.80zM173.80 275.00h8.80v4.40h-8.80zM187.00 275.00h8.80v4.40h-8.80zM213.40 275.00h8.80v4.40h-8.80zM231.00 275.00h8.80v4.40h-8.80zM103.40 279.40h4.40v4.40h-4.40zM129.80 279.40h8.80v4.40h-8.80zM147.40 279.40h4.40v4.40h-4.40zM173.80 279.40h8.80v4.40h-8.80zM187.00 279.40h8.80v4.40h-8.80zM217.80 279.40h8.80v4.40h-8.80zM239.80 279.40h4.40v4.40h-4.40zM103.40 283.80h4.40v4.40h-4.40zM129.80 283.80h8.80v4.40h-8.80zM147.40 283.80h4.40v4.40h-4.40zM173.80 283.80h8.80v4.40h-8.80zM187.00 283.80h8.80v4.40h-8.80zM217.80 283.80h8.80v4.40h-8.80zM244.20 283.80h4.40v4.40h-4.40zM129.80 288.20h4.40v4.40h-4.40zM147.40 288.20h4.40v4.40h-4.40zM173.80 288.20h8.80v4.40h-8.80zM191.40 288.20h4.40v4.40h-4.40zM222.20 288.20h4.40v4.40h-4.40zM129.80 292.60h4.40v4.40h-4.40zM147.40 292.60h4.40v4.40h-4.40zM173.80 292.60h8.80v4.40h-8.80zM191.40 292.60h8.80v4.40h-8.80zM222.20 292.60h4.40v4.40h-4.40zM125.40 297.00h4.40v4.40h-4.40zM147.40 297.00h4.40v4.40h-4.40zM173.80 297.00h8.80v4.40h-8.80zM195.80 297.00h4.40v4.40h-4.40zM226.60 297.00h4.40v4.40h-4.40zM173.80 301.40h8.80v4.40h-8.80zM200.20 301.40h4.40v4.40h-4.40z"></path>
  <g transform="translate(343.35 167.00) scale(1)"><path d="M79.07-27.91L79.07-32.56L83.72-32.56L83.72-97.67L79.07-97.67L79.07-102.33L65.12-102.33L65.12-97.67L69.77-97.67L69.77-93.02L74.42-93.02L74.42-27.91L79.07-27.91ZM4.65 0L4.65-9.30L9.30-9.30L9.30-13.95L13.95-13.95L13.95-18.60L18.60-18.60L18.60-23.26L55.81-23.26L55.81-18.60L60.47-18.60L60.47-13.95L65.12-13.95L65.12-88.37L60.47-88.37L60.47-93.02L55.81-93.02L55.81-32.56L37.21-32.56L37.21-51.16L18.60-51.16L18.60-60.47L37.21-60.47L37.21-69.77L18.60-69.77L18.60-79.07L37.21-79.07L37.21-88.37L32.56-88.37L32.56-93.02L27.91-93.02L27.91-97.67L13.95-97.67L13.95-102.33L9.30-102.33L9.30-106.98L4.65-106.98L4.65-116.28L9.30-116.28L9.30-111.63L13.95-111.63L13.95-106.98L18.60-106.98L18.60-111.63L23.26-111.63L23.26-116.28L41.86-116.28L41.86-111.63L46.51-111.63L46.51-106.98L51.16-106.98L51.16-102.33L60.47-102.33L60.47-106.98L65.12-106.98L65.12-111.63L69.77-111.63L69.77-116.28L88.37-116.28L88.37-111.63L93.02-111.63L93.02-106.98L106.98-106.98L106.98-111.63L111.63-111.63L111.63-116.28L116.28-116.28L116.28-106.98L111.63-106.98L111.63-102.33L106.98-102.33L106.98-97.67L102.33-97.67L102.33-41.86L97.67-41.86L97.67-37.21L93.02-37.21L93.02-32.56L88.37-32.56L88.37-27.91L83.72-27.91L83.72-23.26L79.07-23.26L79.07-18.60L74.42-18.60L74.42-13.95L69.77-13.95L69.77-9.30L65.12-9.30L65.12-4.65L60.47-4.65L60.47 0L37.21 0L37.21-4.65L32.56-4.65L32.56-9.30L13.95-9.30L13.95-4.65L9.30-4.65L9.30 0L4.65 0ZM116.28-9.30L116.28-18.60L125.58-18.60L125.58-60.47L130.23-60.47L130.23-65.12L134.88-65.12L134.88-69.77L139.53-69.77L139.53-74.42L144.19-74.42L144.19-79.07L172.09-79.07L172.09-74.42L176.74-74.42L176.74-69.77L190.70-69.77L190.70-60.47L181.40-60.47L181.40-23.26L176.74-23.26L176.74-18.60L172.09-18.60L172.09-13.95L167.44-13.95L167.44-9.30L162.79-9.30L162.79-4.65L158.14-4.65L158.14 0L134.88 0L134.88-4.65L130.23-4.65L130.23-9.30L116.28-9.30ZM144.19-69.77L144.19-18.60L162.79-18.60L162.79-60.47L158.14-60.47L158.14-65.12L153.49-65.12L153.49-69.77L144.19-69.77ZM200.00-4.65L200.00-9.30L195.35-9.30L195.35-18.60L200.00-18.60L200.00-13.95L204.65-13.95L204.65-9.30L209.30-9.30L209.30-13.95L213.95-13.95L213.95-18.60L218.60-18.60L218.60-23.26L223.26-23.26L223.26-46.51L218.60-46.51L218.60-51.16L213.95-51.16L213.95-55.81L209.30-55.81L209.30-60.47L204.65-60.47L204.65-65.12L209.30-65.12L209.30-69.77L213.95-69.77L213.95-74.42L218.60-74.42L218.60-79.07L223.26-79.07L223.26-74.42L227.91-74.42L227.91-69.77L232.56-69.77L232.56-65.12L237.21-65.12L237.21-69.77L241.86-69.77L241.86-74.42L246.51-74.42L246.51-79.07L251.16-79.07L251.16-74.42L255.81-74.42L255.81-69.77L265.12-69.77L265.12-74.42L269.77-74.42L269.77-79.07L274.42-79.07L274.42-69.77L269.77-69.77L269.77-65.12L265.12-65.12L265.12-60.47L260.47-60.47L260.47-55.81L255.81-55.81L255.81-51.16L241.86-51.16L241.86-18.60L251.16-18.60L251.16-23.26L255.81-23.26L255.81-27.91L260.47-27.91L260.47-18.60L255.81-18.60L255.81-13.95L251.16-13.95L251.16-9.30L246.51-9.30L246.51-4.65L241.86-4.65L241.86 0L237.21 0L237.21-4.65L232.56-4.65L232.56-9.30L223.26-9.30L223.26-4.65L218.60-4.65L218.60 0L204.65 0L204.65-4.65L200.00-4.65Z"></path></g>
  <g transform="translate(343.35 301.28) scale(1)"><path d="M4.65 0L4.65-9.30L9.30-9.30L9.30-13.95L13.95-13.95L13.95-18.60L18.60-18.60L18.60-23.26L27.91-23.26L27.91-27.91L32.56-27.91L32.56-32.56L37.21-32.56L37.21-37.21L41.86-37.21L41.86-41.86L46.51-41.86L46.51-46.51L51.16-46.51L51.16-69.77L46.51-69.77L46.51-74.42L41.86-74.42L41.86-79.07L37.21-79.07L37.21-74.42L32.56-74.42L32.56-69.77L27.91-69.77L27.91-79.07L32.56-79.07L32.56-83.72L37.21-83.72L37.21-88.37L41.86-88.37L41.86-93.02L46.51-93.02L46.51-97.67L51.16-97.67L51.16-93.02L55.81-93.02L55.81-88.37L60.47-88.37L60.47-83.72L65.12-83.72L65.12-51.16L74.42-51.16L74.42-88.37L69.77-88.37L69.77-93.02L65.12-93.02L65.12-97.67L60.47-97.67L60.47-102.33L55.81-102.33L55.81-106.98L32.56-106.98L32.56-102.33L27.91-102.33L27.91-97.67L23.26-97.67L23.26-93.02L18.60-93.02L18.60-88.37L13.95-88.37L13.95-83.72L9.30-83.72L9.30-93.02L13.95-93.02L13.95-97.67L18.60-97.67L18.60-102.33L23.26-102.33L23.26-106.98L27.91-106.98L27.91-111.63L32.56-111.63L32.56-116.28L74.42-116.28L74.42-111.63L79.07-111.63L79.07-106.98L83.72-106.98L83.72-102.33L93.02-102.33L93.02-106.98L97.67-106.98L97.67-111.63L102.33-111.63L102.33-116.28L111.63-116.28L111.63-111.63L116.28-111.63L116.28-106.98L120.93-106.98L120.93-102.33L125.58-102.33L125.58-97.67L120.93-97.67L120.93-93.02L116.28-93.02L116.28-88.37L111.63-88.37L111.63-93.02L106.98-93.02L106.98-97.67L102.33-97.67L102.33-102.33L97.67-102.33L97.67-97.67L93.02-97.67L93.02-13.95L106.98-13.95L106.98-18.60L111.63-18.60L111.63-23.26L116.28-23.26L116.28-13.95L111.63-13.95L111.63-9.30L106.98-9.30L106.98-4.65L102.33-4.65L102.33 0L83.72 0L83.72-4.65L79.07-4.65L79.07-9.30L74.42-9.30L74.42-46.51L69.77-46.51L69.77-41.86L55.81-41.86L55.81-37.21L51.16-37.21L51.16-32.56L46.51-32.56L46.51-27.91L41.86-27.91L41.86-23.26L37.21-23.26L37.21-18.60L41.86-18.60L41.86-13.95L55.81-13.95L55.81-18.60L60.47-18.60L60.47-23.26L65.12-23.26L65.12-13.95L60.47-13.95L60.47-9.30L55.81-9.30L55.81-4.65L51.16-4.65L51.16 0L32.56 0L32.56-4.65L27.91-4.65L27.91-9.30L13.95-9.30L13.95-4.65L9.30-4.65L9.30 0L4.65 0ZM162.79-4.65L162.79 0L148.84 0L148.84-9.30L134.88-9.30L134.88-18.60L144.19-18.60L144.19-60.47L134.88-60.47L134.88-65.12L139.53-65.12L139.53-69.77L144.19-69.77L144.19-74.42L148.84-74.42L148.84-79.07L158.14-79.07L158.14-74.42L162.79-74.42L162.79-18.60L181.40-18.60L181.40-60.47L172.09-60.47L172.09-69.77L181.40-69.77L181.40-74.42L186.05-74.42L186.05-79.07L195.35-79.07L195.35-74.42L200-74.42L200-69.77L209.30-69.77L209.30-60.47L200-60.47L200-18.60L209.30-18.60L209.30-13.95L204.65-13.95L204.65-9.30L200-9.30L200-4.65L195.35-4.65L195.35 0L181.40 0L181.40-9.30L167.44-9.30L167.44-4.65L162.79-4.65ZM274.42-65.12L274.42-83.72L283.72-83.72L283.72-65.12L274.42-65.12ZM241.86-18.60L241.86-13.95L255.81-13.95L255.81-18.60L260.47-18.60L260.47-37.21L251.16-37.21L251.16-32.56L246.51-32.56L246.51-27.91L241.86-27.91L241.86-23.26L237.21-23.26L237.21-18.60L241.86-18.60ZM213.95 0L213.95-9.30L218.60-9.30L218.60-13.95L223.26-13.95L223.26-18.60L227.91-18.60L227.91-23.26L232.56-23.26L232.56-27.91L237.21-27.91L237.21-32.56L227.91-32.56L227.91-37.21L223.26-37.21L223.26-60.47L227.91-60.47L227.91-65.12L232.56-65.12L232.56-69.77L241.86-69.77L241.86-51.16L246.51-51.16L246.51-46.51L251.16-46.51L251.16-51.16L255.81-51.16L255.81-55.81L260.47-55.81L260.47-60.47L255.81-60.47L255.81-65.12L251.16-65.12L251.16-69.77L241.86-69.77L241.86-79.07L260.47-79.07L260.47-74.42L265.12-74.42L265.12-69.77L269.77-69.77L269.77-65.12L274.42-65.12L274.42-55.81L269.77-55.81L269.77-51.16L265.12-51.16L265.12-46.51L274.42-46.51L274.42-41.86L279.07-41.86L279.07-23.26L274.42-23.26L274.42-18.60L269.77-18.60L269.77-13.95L265.12-13.95L265.12-9.30L260.47-9.30L260.47-4.65L255.81-4.65L255.81 0L237.21 0L237.21-4.65L232.56-4.65L232.56-9.30L223.26-9.30L223.26-4.65L218.60-4.65L218.60 0L213.95 0ZM293.02-9.30L293.02-18.60L302.33-18.60L302.33-69.77L293.02-69.77L293.02-79.07L302.33-79.07L302.33-93.02L306.98-93.02L306.98-97.67L311.63-97.67L311.63-102.33L316.28-102.33L316.28-106.98L320.93-106.98L320.93-79.07L339.53-79.07L339.53-69.77L320.93-69.77L320.93-18.60L339.53-18.60L339.53-13.95L334.88-13.95L334.88-9.30L330.23-9.30L330.23-4.65L325.58-4.65L325.58 0L311.63 0L311.63-9.30L293.02-9.30ZM348.84-9.30L348.84-18.60L358.14-18.60L358.14-60.47L348.84-60.47L348.84-69.77L353.49-69.77L353.49-74.42L358.14-74.42L358.14-79.07L367.44-79.07L367.44-69.77L372.09-69.77L372.09-74.42L376.74-74.42L376.74-79.07L400-79.07L400-74.42L404.65-74.42L404.65-60.47L390.70-60.47L390.70-65.12L386.05-65.12L386.05-69.77L381.40-69.77L381.40-65.12L376.74-65.12L376.74-18.60L381.40-18.60L381.40-9.30L376.74-9.30L376.74-4.65L372.09-4.65L372.09 0L358.14 0L358.14-9.30L348.84-9.30ZM437.21-69.77L437.21-18.60L455.81-18.60L455.81-69.77L437.21-69.77ZM409.30-9.30L409.30-18.60L418.60-18.60L418.60-60.47L423.26-60.47L423.26-65.12L427.91-65.12L427.91-69.77L432.56-69.77L432.56-74.42L437.21-74.42L437.21-79.07L465.12-79.07L465.12-74.42L469.77-74.42L469.77-69.77L483.72-69.77L483.72-60.47L474.42-60.47L474.42-18.60L483.72-18.60L483.72-9.30L479.07-9.30L479.07-4.65L474.42-4.65L474.42 0L460.47 0L460.47-9.30L451.16-9.30L451.16-4.65L446.51-4.65L446.51 0L427.91 0L427.91-4.65L423.26-4.65L423.26-9.30L409.30-9.30ZM493.02-9.30L493.02-18.60L502.33-18.60L502.33-102.33L506.98-102.33L506.98-106.98L511.63-106.98L511.63-111.63L516.28-111.63L516.28-116.28L520.93-116.28L520.93-18.60L530.23-18.60L530.23-13.95L525.58-13.95L525.58-9.30L520.93-9.30L520.93-4.65L516.28-4.65L516.28 0L502.33 0L502.33-9.30L493.02-9.30Z"></path></g>
</svg>