<svg xmlns="http://www.w3.org/2000/svg" viewBox="1.50 1.50 60.00 60.00" fill="#000" role="img" aria-label="Sol de Mayo">
  <title>Vox Austral — emblema</title>
  <path d="M26.00 3.00h1.00v1.00h-1.00zM31.00 3.00h2.00v1.00h-2.00zM20.00 4.00h1.00v1.00h-1.00zM27.00 4.00h1.00v1.00h-1.00zM31.00 4.00h2.00v1.00h-2.00zM38.00 4.00h1.00v1.00h-1.00zM43.00 4.00h1.00v1.00h-1.00zM21.00 5.00h1.00v1.00h-1.00zM27.00 5.00h2.00v1.00h-2.00zM31.00 5.00h2.00v1.00h-2.00zM38.00 5.00h1.00v1.00h-1.00zM42.00 5.00h1.00v1.00h-1.00zM21.00 6.00h1.00v1.00h-1.00zM28.00 6.00h1.00v1.00h-1.00zM31.00 6.00h2.00v1.00h-2.00zM38.00 6.00h1.00v1.00h-1.00zM42.00 6.00h1.00v1.00h-1.00zM16.00 7.00h1.00v1.00h-1.00zM21.00 7.00h2.00v1.00h-2.00zM28.00 7.00h2.00v1.00h-2.00zM31.00 7.00h2.00v1.00h-2.00zM38.00 7.00h1.00v1.00h-1.00zM41.00 7.00h2.00v1.00h-2.00zM48.00 7.00h1.00v1.00h-1.00zM17.00 8.00h1.00v1.00h-1.00zM21.00 8.00h2.00v1.00h-2.00zM28.00 8.00h2.00v1.00h-2.00zM31.00 8.00h2.00v1.00h-2.00zM38.00 8.00h1.00v1.00h-1.00zM41.00 8.00h2.00v1.00h-2.00zM48.00 8.00h1.00v1.00h-1.00zM18.00 9.00h2.00v1.00h-2.00zM22.00 9.00h2.00v1.00h-2.00zM28.00 9.00h2.00v1.00h-2.00zM31.00 9.00h2.00v1.00h-2.00zM37.00 9.00h2.00v1.00h-2.00zM40.00 9.00h2.00v1.00h-2.00zM48.00 9.00h1.00v1.00h-1.00zM19.00 10.00h2.00v1.00h-2.00zM22.00 10.00h2.00v1.00h-2.00zM28.00 10.00h2.00v1.00h-2.00zM31.00 10.00h2.00v1.00h-2.00zM37.00 10.00h2.00v1.00h-2.00zM40.00 10.00h2.00v1.00h-2.00zM47.00 10.00h2.00v1.00h-2.00zM11.00 11.00h1.00v1.00h-1.00zM19.00 11.00h2.00v1.00h-2.00zM22.00 11.00h3.00v1.00h-3.00zM28.00 11.00h2.00v1.00h-2.00zM31.00 11.00h2.00v1.00h-2.00zM37.00 11.00h1.00v1.00h-1.00zM39.00 11.00h3.00v1.00h-3.00zM47.00 11.00h1.00v1.00h-1.00zM52.00 11.00h1.00v1.00h-1.00zM12.00 12.00h2.00v1.00h-2.00zM20.00 12.00h2.00v1.00h-2.00zM23.00 12.00h2.00v1.00h-2.00zM28.00 12.00h2.00v1.00h-2.00zM31.00 12.00h2.00v1.00h-2.00zM36.00 12.00h2.00v1.00h-2.00zM39.00 12.00h2.00v1.00h-2.00zM46.00 12.00h2.00v1.00h-2.00zM50.00 12.00h2.00v1.00h-2.00zM12.00 13.00h3.00v1.00h-3.00zM20.00 13.00h2.00v1.00h-2.00zM23.00 13.00h3.00v1.00h-3.00zM28.00 13.00h2.00v1.00h-2.00zM31.00 13.00h2.00v1.00h-2.00zM36.00 13.00h5.00v1.00h-5.00zM45.00 13.00h2.00v1.00h-2.00zM49.00 13.00h3.00v1.00h-3.00zM13.00 14.00h3.00v1.00h-3.00zM21.00 14.00h5.00v1.00h-5.00zM28.00 14.00h2.00v1.00h-2.00zM31.00 14.00h2.00v1.00h-2.00zM35.00 14.00h2.00v1.00h-2.00zM38.00 14.00h3.00v1.00h-3.00zM44.00 14.00h2.00v1.00h-2.00zM48.00 14.00h3.00v1.00h-3.00zM7.00 15.00h4.00v1.00h-4.00zM14.00 15.00h3.00v1.00h-3.00zM21.00 15.00h2.00v1.00h-2.00zM24.00 15.00h3.00v1.00h-3.00zM28.00 15.00h2.00v1.00h-2.00zM31.00 15.00h2.00v1.00h-2.00zM35.00 15.00h5.00v1.00h-5.00zM44.00 15.00h2.00v1.00h-2.00zM47.00 15.00h3.00v1.00h-3.00zM10.00 16.00h3.00v1.00h-3.00zM15.00 16.00h3.00v1.00h-3.00zM22.00 16.00h5.00v1.00h-5.00zM28.00 16.00h2.00v1.00h-2.00zM31.00 16.00h2.00v1.00h-2.00zM34.00 16.00h6.00v1.00h-6.00zM42.00 16.00h3.00v1.00h-3.00zM46.00 16.00h3.00v1.00h-3.00zM56.00 16.00h1.00v1.00h-1.00zM12.00 17.00h2.00v1.00h-2.00zM16.00 17.00h3.00v1.00h-3.00zM22.00 17.00h8.00v1.00h-8.00zM31.00 17.00h2.00v1.00h-2.00zM34.00 17.00h6.00v1.00h-6.00zM41.00 17.00h3.00v1.00h-3.00zM45.00 17.00h3.00v1.00h-3.00zM55.00 17.00h1.00v1.00h-1.00zM13.00 18.00h3.00v1.00h-3.00zM17.00 18.00h4.00v1.00h-4.00zM22.00 18.00h17.00v1.00h-17.00zM40.00 18.00h7.00v1.00h-7.00zM54.00 18.00h1.00v1.00h-1.00zM14.00 19.00h3.00v1.00h-3.00zM18.00 19.00h3.00v1.00h-3.00zM23.00 19.00h19.00v1.00h-19.00zM43.00 19.00h3.00v1.00h-3.00zM52.00 19.00h3.00v1.00h-3.00zM4.00 20.00h1.00v1.00h-1.00zM16.00 20.00h6.00v1.00h-6.00zM23.00 20.00h18.00v1.00h-18.00zM42.00 20.00h4.00v1.00h-4.00zM50.00 20.00h4.00v1.00h-4.00zM59.00 20.00h1.00v1.00h-1.00zM5.00 21.00h4.00v1.00h-4.00zM16.00 21.00h3.00v1.00h-3.00zM20.00 21.00h24.00v1.00h-24.00zM48.00 21.00h4.00v1.00h-4.00zM55.00 21.00h4.00v1.00h-4.00zM7.00 22.00h5.00v1.00h-5.00zM17.00 22.00h3.00v1.00h-3.00zM21.00 22.00h22.00v1.00h-22.00zM45.00 22.00h5.00v1.00h-5.00zM52.00 22.00h5.00v1.00h-5.00zM9.00 23.00h6.00v1.00h-6.00zM18.00 23.00h11.00v1.00h-11.00zM30.00 23.00h5.00v1.00h-5.00zM36.00 23.00h12.00v1.00h-12.00zM49.00 23.00h6.00v1.00h-6.00zM11.00 24.00h7.00v1.00h-7.00zM19.00 24.00h7.00v1.00h-7.00zM29.00 24.00h7.00v1.00h-7.00zM39.00 24.00h14.00v1.00h-14.00zM4.00 25.00h7.00v1.00h-7.00zM13.00 25.00h10.00v1.00h-10.00zM26.00 25.00h13.00v1.00h-13.00zM42.00 25.00h9.00v1.00h-9.00zM9.00 26.00h5.00v1.00h-5.00zM15.00 26.00h11.00v1.00h-11.00zM27.00 26.00h10.00v1.00h-10.00zM38.00 26.00h11.00v1.00h-11.00zM60.00 26.00h1.00v1.00h-1.00zM12.00 27.00h13.00v1.00h-13.00zM28.00 27.00h8.00v1.00h-8.00zM39.00 27.00h8.00v1.00h-8.00zM58.00 27.00h2.00v1.00h-2.00zM14.00 28.00h11.00v1.00h-11.00zM28.00 28.00h8.00v1.00h-8.00zM39.00 28.00h20.00v1.00h-20.00zM16.00 29.00h9.00v1.00h-9.00zM26.00 29.00h1.00v1.00h-1.00zM28.00 29.00h8.00v1.00h-8.00zM37.00 29.00h1.00v1.00h-1.00zM39.00 29.00h18.00v1.00h-18.00zM18.00 30.00h7.00v1.00h-7.00zM26.00 30.00h1.00v1.00h-1.00zM28.00 30.00h8.00v1.00h-8.00zM37.00 30.00h1.00v1.00h-1.00zM39.00 30.00h7.00v1.00h-7.00zM3.00 31.00h23.00v1.00h-23.00zM27.00 31.00h5.00v1.00h-5.00zM33.00 31.00h4.00v1.00h-4.00zM38.00 31.00h23.00v1.00h-23.00zM3.00 32.00h29.00v1.00h-29.00zM33.00 32.00h28.00v1.00h-28.00zM18.00 33.00h14.00v1.00h-14.00zM33.00 33.00h13.00v1.00h-13.00zM7.00 34.00h25.00v1.00h-25.00zM33.00 34.00h15.00v1.00h-15.00zM5.00 35.00h26.00v1.00h-26.00zM34.00 35.00h16.00v1.00h-16.00zM4.00 36.00h2.00v1.00h-2.00zM17.00 36.00h35.00v1.00h-35.00zM3.00 37.00h1.00v1.00h-1.00zM15.00 37.00h34.00v1.00h-34.00zM50.00 37.00h5.00v1.00h-5.00zM13.00 38.00h38.00v1.00h-38.00zM53.00 38.00h7.00v1.00h-7.00zM11.00 39.00h17.00v1.00h-17.00zM29.00 39.00h7.00v1.00h-7.00zM37.00 39.00h8.00v1.00h-8.00zM46.00 39.00h7.00v1.00h-7.00zM9.00 40.00h6.00v1.00h-6.00zM16.00 40.00h13.00v1.00h-13.00zM31.00 40.00h3.00v1.00h-3.00zM36.00 40.00h10.00v1.00h-10.00zM49.00 40.00h6.00v1.00h-6.00zM7.00 41.00h5.00v1.00h-5.00zM14.00 41.00h5.00v1.00h-5.00zM21.00 41.00h10.00v1.00h-10.00zM34.00 41.00h9.00v1.00h-9.00zM44.00 41.00h3.00v1.00h-3.00zM52.00 41.00h5.00v1.00h-5.00zM5.00 42.00h4.00v1.00h-4.00zM12.00 42.00h4.00v1.00h-4.00zM20.00 42.00h24.00v1.00h-24.00zM45.00 42.00h3.00v1.00h-3.00zM55.00 42.00h4.00v1.00h-4.00zM4.00 43.00h1.00v1.00h-1.00zM10.00 43.00h4.00v1.00h-4.00zM18.00 43.00h4.00v1.00h-4.00zM23.00 43.00h18.00v1.00h-18.00zM42.00 43.00h6.00v1.00h-6.00zM59.00 43.00h1.00v1.00h-1.00zM9.00 44.00h3.00v1.00h-3.00zM18.00 44.00h3.00v1.00h-3.00zM22.00 44.00h19.00v1.00h-19.00zM43.00 44.00h3.00v1.00h-3.00zM47.00 44.00h3.00v1.00h-3.00zM9.00 45.00h1.00v1.00h-1.00zM17.00 45.00h7.00v1.00h-7.00zM25.00 45.00h17.00v1.00h-17.00zM43.00 45.00h4.00v1.00h-4.00zM48.00 45.00h3.00v1.00h-3.00zM8.00 46.00h1.00v1.00h-1.00zM16.00 46.00h3.00v1.00h-3.00zM20.00 46.00h3.00v1.00h-3.00zM24.00 46.00h6.00v1.00h-6.00zM31.00 46.00h2.00v1.00h-2.00zM34.00 46.00h8.00v1.00h-8.00zM45.00 46.00h3.00v1.00h-3.00zM50.00 46.00h2.00v1.00h-2.00zM7.00 47.00h1.00v1.00h-1.00zM15.00 47.00h3.00v1.00h-3.00zM19.00 47.00h3.00v1.00h-3.00zM24.00 47.00h6.00v1.00h-6.00zM31.00 47.00h2.00v1.00h-2.00zM34.00 47.00h2.00v1.00h-2.00zM37.00 47.00h5.00v1.00h-5.00zM46.00 47.00h3.00v1.00h-3.00zM51.00 47.00h3.00v1.00h-3.00zM14.00 48.00h3.00v1.00h-3.00zM18.00 48.00h2.00v1.00h-2.00zM24.00 48.00h5.00v1.00h-5.00zM31.00 48.00h2.00v1.00h-2.00zM34.00 48.00h2.00v1.00h-2.00zM37.00 48.00h3.00v1.00h-3.00zM41.00 48.00h2.00v1.00h-2.00zM47.00 48.00h3.00v1.00h-3.00zM53.00 48.00h4.00v1.00h-4.00zM13.00 49.00h3.00v1.00h-3.00zM18.00 49.00h2.00v1.00h-2.00zM23.00 49.00h3.00v1.00h-3.00zM27.00 49.00h2.00v1.00h-2.00zM31.00 49.00h2.00v1.00h-2.00zM34.00 49.00h2.00v1.00h-2.00zM38.00 49.00h5.00v1.00h-5.00zM48.00 49.00h3.00v1.00h-3.00zM12.00 50.00h3.00v1.00h-3.00zM17.00 50.00h2.00v1.00h-2.00zM23.00 50.00h5.00v1.00h-5.00zM31.00 50.00h2.00v1.00h-2.00zM34.00 50.00h2.00v1.00h-2.00zM38.00 50.00h3.00v1.00h-3.00zM42.00 50.00h2.00v1.00h-2.00zM49.00 50.00h3.00v1.00h-3.00zM12.00 51.00h2.00v1.00h-2.00zM16.00 51.00h2.00v1.00h-2.00zM23.00 51.00h2.00v1.00h-2.00zM26.00 51.00h2.00v1.00h-2.00zM31.00 51.00h2.00v1.00h-2.00zM34.00 51.00h2.00v1.00h-2.00zM39.00 51.00h2.00v1.00h-2.00zM42.00 51.00h2.00v1.00h-2.00zM50.00 51.00h2.00v1.00h-2.00zM11.00 52.00h1.00v1.00h-1.00zM16.00 52.00h1.00v1.00h-1.00zM22.00 52.00h3.00v1.00h-3.00zM26.00 52.00h1.00v1.00h-1.00zM31.00 52.00h2.00v1.00h-2.00zM34.00 52.00h2.00v1.00h-2.00zM39.00 52.00h3.00v1.00h-3.00zM43.00 52.00h2.00v1.00h-2.00zM52.00 52.00h1.00v1.00h-1.00zM15.00 53.00h2.00v1.00h-2.00zM22.00 53.00h2.00v1.00h-2.00zM25.00 53.00h2.00v1.00h-2.00zM31.00 53.00h2.00v1.00h-2.00zM34.00 53.00h2.00v1.00h-2.00zM40.00 53.00h2.00v1.00h-2.00zM43.00 53.00h2.00v1.00h-2.00zM15.00 54.00h1.00v1.00h-1.00zM22.00 54.00h2.00v1.00h-2.00zM25.00 54.00h2.00v1.00h-2.00zM31.00 54.00h2.00v1.00h-2.00zM34.00 54.00h2.00v1.00h-2.00zM40.00 54.00h2.00v1.00h-2.00zM44.00 54.00h2.00v1.00h-2.00zM15.00 55.00h1.00v1.00h-1.00zM21.00 55.00h2.00v1.00h-2.00zM25.00 55.00h1.00v1.00h-1.00zM31.00 55.00h2.00v1.00h-2.00zM34.00 55.00h2.00v1.00h-2.00zM41.00 55.00h2.00v1.00h-2.00zM46.00 55.00h1.00v1.00h-1.00zM15.00 56.00h1.00v1.00h-1.00zM21.00 56.00h2.00v1.00h-2.00zM25.00 56.00h1.00v1.00h-1.00zM31.00 56.00h2.00v1.00h-2.00zM34.00 56.00h2.00v1.00h-2.00zM41.00 56.00h2.00v1.00h-2.00zM47.00 56.00h1.00v1.00h-1.00zM21.00 57.00h1.00v1.00h-1.00zM25.00 57.00h1.00v1.00h-1.00zM31.00 57.00h2.00v1.00h-2.00zM35.00 57.00h1.00v1.00h-1.00zM42.00 57.00h1.00v1.00h-1.00zM21.00 58.00h1.00v1.00h-1.00zM25.00 58.00h1.00v1.00h-1.00zM31.00 58.00h2.00v1.00h-2.00zM35.00 58.00h2.00v1.00h-2.00zM42.00 58.00h1.00v1.00h-1.00zM20.00 59.00h1.00v1.00h-1.00zM25.00 59.00h1.00v1.00h-1.00zM31.00 59.00h2.00v1.00h-2.00zM36.00 59.00h1.00v1.00h-1.00zM43.00 59.00h1.00v1.00h-1.00zM31.00 60.00h2.00v1.00h-2.00zM37.00 60.00h1.00v1.00h-1.00z"></path>
</svg>