<svg xmlns="http://www.w3.org/2000/svg" viewBox="0 0 697.7 785.8" width="697.7" height="785.8" fill="#000" role="img" aria-label="Vox Austral">
  <title>Vox Austral</title>
  <path d="M315.85 53.00h6.00v6.00h-6.00zM345.85 53.00h12.00v6.00h-12.00zM279.85 59.00h6.00v6.00h-6.00zM321.85 59.00h6.00v6.00h-6.00zM345.85 59.00h12.00v6.00h-12.00zM387.85 59.00h6.00v6.00h-6.00zM417.85 59.00h6.00v6.00h-6.00zM285.85 65.00h6.00v6.00h-6.00zM321.85 65.00h12.00v6.00h-12.00zM345.85 65.00h12.00v6.00h-12.00zM387.85 65.00h6.00v6.00h-6.00zM411.85 65.00h6.00v6.00h-6.00zM285.85 71.00h6.00v6.00h-6.00zM327.85 71.00h6.00v6.00h-6.00zM345.85 71.00h12.00v6.00h-12.00zM387.85 71.00h6.00v6.00h-6.00zM411.85 71.00h6.00v6.00h-6.00zM255.85 77.00h6.00v6.00h-6.00zM285.85 77.00h12.00v6.00h-12.00zM327.85 77.00h12.00v6.00h-12.00zM345.85 77.00h12.00v6.00h-12.00zM387.85 77.00h6.00v6.00h-6.00zM405.85 77.00h12.00v6.00h-12.00zM447.85 77.00h6.00v6.00h-6.00zM261.85 83.00h6.00v6.00h-6.00zM285.85 83.00h12.00v6.00h-12.00zM327.85 83.00h12.00v6.00h-12.00zM345.85 83.00h12.00v6.00h-12.00zM387.85 83.00h6.00v6.00h-6.00zM405.85 83.00h12.00v6.00h-12.00zM447.85 83.00h6.00v6.00h-6.00zM267.85 89.00h12.00v6.00h-12.00zM291.85 89.00h12.00v6.00h-12.00zM327.85 89.00h12.00v6.00h-12.00zM345.85 89.00h12.00v6.00h-12.00zM381.85 89.00h12.00v6.00h-12.00zM399.85 89.00h12.00v6.00h-12.00zM447.85 89.00h6.00v6.00h-6.00zM273.85 95.00h12.00v6.00h-12.00zM291.85 95.00h12.00v6.00h-12.00zM327.85 95.00h12.00v6.00h-12.00zM345.85 95.00h12.00v6.00h-12.00zM381.85 95.00h12.00v6.00h-12.00zM399.85 95.00h12.00v6.00h-12.00zM441.85 95.00h12.00v6.00h-12.00zM225.85 101.00h6.00v6.00h-6.00zM273.85 101.00h12.00v6.00h-12.00zM291.85 101.00h18.00v6.00h-18.00zM327.85 101.00h12.00v6.00h-12.00zM345.85 101.00h12.00v6.00h-12.00zM381.85 101.00h6.00v6.00h-6.00zM393.85 101.00h18.00v6.00h-18.00zM441.85 101.00h6.00v6.00h-6.00zM471.85 101.00h6.00v6.00h-6.00zM231.85 107.00h12.00v6.00h-12.00zM279.85 107.00h12.00v6.00h-12.00zM297.85 107.00h12.00v6.00h-12.00zM327.85 107.00h12.00v6.00h-12.00zM345.85 107.00h12.00v6.00h-12.00zM375.85 107.00h12.00v6.00h-12.00zM393.85 107.00h12.00v6.00h-12.00zM435.85 107.00h12.00v6.00h-12.00zM459.85 107.00h12.00v6.00h-12.00zM231.85 113.00h18.00v6.00h-18.00zM279.85 113.00h12.00v6.00h-12.00zM297.85 113.00h18.00v6.00h-18.00zM327.85 113.00h12.00v6.00h-12.00zM345.85 113.00h12.00v6.00h-12.00zM375.85 113.00h30.00v6.00h-30.00zM429.85 113.00h12.00v6.00h-12.00zM453.85 113.00h18.00v6.00h-18.00zM237.85 119.00h18.00v6.00h-18.00zM285.85 119.00h30.00v6.00h-30.00zM327.85 119.00h12.00v6.00h-12.00zM345.85 119.00h12.00v6.00h-12.00zM369.85 119.00h12.00v6.00h-12.00zM387.85 119.00h18.00v6.00h-18.00zM423.85 119.00h12.00v6.00h-12.00zM447.85 119.00h18.00v6.00h-18.00zM201.85 125.00h24.00v6.00h-24.00zM243.85 125.00h18.00v6.00h-18.00zM285.85 125.00h12.00v6.00h-12.00zM303.85 125.00h18.00v6.00h-18.00zM327.85 125.00h12.00v6.00h-12.00zM345.85 125.00h12.00v6.00h-12.00zM369.85 125.00h30.00v6.00h-30.00zM423.85 125.00h12.00v6.00h-12.00zM441.85 125.00h18.00v6.00h-18.00zM219.85 131.00h18.00v6.00h-18.00zM249.85 131.00h18.00v6.00h-18.00zM291.85 131.00h30.00v6.00h-30.00zM327.85 131.00h12.00v6.00h-12.00zM345.85 131.00h12.00v6.00h-12.00zM363.85 131.00h36.00v6.00h-36.00zM411.85 131.00h18.00v6.00h-18.00zM435.85 131.00h18.00v6.00h-18.00zM495.85 131.00h6.00v6.00h-6.00zM231.85 137.00h12.00v6.00h-12.00zM255.85 137.00h18.00v6.00h-18.00zM291.85 137.00h48.00v6.00h-48.00zM345.85 137.00h12.00v6.00h-12.00zM363.85 137.00h36.00v6.00h-36.00zM405.85 137.00h18.00v6.00h-18.00zM429.85 137.00h18.00v6.00h-18.00zM489.85 137.00h6.00v6.00h-6.00zM237.85 143.00h18.00v6.00h-18.00zM261.85 143.00h24.00v6.00h-24.00zM291.85 143.00h102.00v6.00h-102.00zM399.85 143.00h42.00v6.00h-42.00zM483.85 143.00h6.00v6.00h-6.00zM243.85 149.00h18.00v6.00h-18.00zM267.85 149.00h18.00v6.00h-18.00zM297.85 149.00h114.00v6.00h-114.00zM417.85 149.00h18.00v6.00h-18.00zM471.85 149.00h18.00v6.00h-18.00zM183.85 155.00h6.00v6.00h-6.00zM255.85 155.00h36.00v6.00h-36.00zM297.85 155.00h108.00v6.00h-108.00zM411.85 155.00h24.00v6.00h-24.00zM459.85 155.00h24.00v6.00h-24.00zM513.85 155.00h6.00v6.00h-6.00zM189.85 161.00h24.00v6.00h-24.00zM255.85 161.00h18.00v6.00h-18.00zM279.85 161.00h144.00v6.00h-144.00zM447.85 161.00h24.00v6.00h-24.00zM489.85 161.00h24.00v6.00h-24.00zM201.85 167.00h30.00v6.00h-30.00zM261.85 167.00h18.00v6.00h-18.00zM285.85 167.00h132.00v6.00h-132.00zM429.85 167.00h30.00v6.00h-30.00zM471.85 167.00h30.00v6.00h-30.00zM213.85 173.00h36.00v6.00h-36.00zM267.85 173.00h66.00v6.00h-66.00zM339.85 173.00h30.00v6.00h-30.00zM375.85 173.00h72.00v6.00h-72.00zM453.85 173.00h36.00v6.00h-36.00zM225.85 179.00h42.00v6.00h-42.00zM273.85 179.00h42.00v6.00h-42.00zM333.85 179.00h42.00v6.00h-42.00zM393.85 179.00h84.00v6.00h-84.00zM183.85 185.00h42.00v6.00h-42.00zM237.85 185.00h60.00v6.00h-60.00zM315.85 185.00h78.00v6.00h-78.00zM411.85 185.00h54.00v6.00h-54.00zM213.85 191.00h30.00v6.00h-30.00zM249.85 191.00h66.00v6.00h-66.00zM321.85 191.00h60.00v6.00h-60.00zM387.85 191.00h66.00v6.00h-66.00zM519.85 191.00h6.00v6.00h-6.00zM231.85 197.00h78.00v6.00h-78.00zM327.85 197.00h48.00v6.00h-48.00zM393.85 197.00h48.00v6.00h-48.00zM507.85 197.00h12.00v6.00h-12.00zM243.85 203.00h66.00v6.00h-66.00zM327.85 203.00h48.00v6.00h-48.00zM393.85 203.00h120.00v6.00h-120.00zM255.85 209.00h54.00v6.00h-54.00zM315.85 209.00h6.00v6.00h-6.00zM327.85 209.00h48.00v6.00h-48.00zM381.85 209.00h6.00v6.00h-6.00zM393.85 209.00h108.00v6.00h-108.00zM267.85 215.00h42.00v6.00h-42.00zM315.85 215.00h6.00v6.00h-6.00zM327.85 215.00h48.00v6.00h-48.00zM381.85 215.00h6.00v6.00h-6.00zM393.85 215.00h42.00v6.00h-42.00zM177.85 221.00h138.00v6.00h-138.00zM321.85 221.00h30.00v6.00h-30.00zM357.85 221.00h24.00v6.00h-24.00zM387.85 221.00h138.00v6.00h-138.00zM177.85 227.00h174.00v6.00h-174.00zM357.85 227.00h168.00v6.00h-168.00zM267.85 233.00h84.00v6.00h-84.00zM357.85 233.00h78.00v6.00h-78.00zM201.85 239.00h150.00v6.00h-150.00zM357.85 239.00h90.00v6.00h-90.00zM189.85 245.00h156.00v6.00h-156.00zM363.85 245.00h96.00v6.00h-96.00zM183.85 251.00h12.00v6.00h-12.00zM261.85 251.00h210.00v6.00h-210.00zM177.85 257.00h6.00v6.00h-6.00zM249.85 257.00h204.00v6.00h-204.00zM459.85 257.00h30.00v6.00h-30.00zM237.85 263.00h228.00v6.00h-228.00zM477.85 263.00h42.00v6.00h-42.00zM225.85 269.00h102.00v6.00h-102.00zM333.85 269.00h42.00v6.00h-42.00zM381.85 269.00h48.00v6.00h-48.00zM435.85 269.00h42.00v6.00h-42.00zM213.85 275.00h36.00v6.00h-36.00zM255.85 275.00h78.00v6.00h-78.00zM345.85 275.00h18.00v6.00h-18.00zM375.85 275.00h60.00v6.00h-60.00zM453.85 275.00h36.00v6.00h-36.00zM201.85 281.00h30.00v6.00h-30.00zM243.85 281.00h30.00v6.00h-30.00zM285.85 281.00h60.00v6.00h-60.00zM363.85 281.00h54.00v6.00h-54.00zM423.85 281.00h18.00v6.00h-18.00zM471.85 281.00h30.00v6.00h-30.00zM189.85 287.00h24.00v6.00h-24.00zM231.85 287.00h24.00v6.00h-24.00zM279.85 287.00h144.00v6.00h-144.00zM429.85 287.00h18.00v6.00h-18.00zM489.85 287.00h24.00v6.00h-24.00zM183.85 293.00h6.00v6.00h-6.00zM219.85 293.00h24.00v6.00h-24.00zM267.85 293.00h24.00v6.00h-24.00zM297.85 293.00h108.00v6.00h-108.00zM411.85 293.00h36.00v6.00h-36.00zM513.85 293.00h6.00v6.00h-6.00zM213.85 299.00h18.00v6.00h-18.00zM267.85 299.00h18.00v6.00h-18.00zM291.85 299.00h114.00v6.00h-114.00zM417.85 299.00h18.00v6.00h-18.00zM441.85 299.00h18.00v6.00h-18.00zM213.85 305.00h6.00v6.00h-6.00zM261.85 305.00h42.00v6.00h-42.00zM309.85 305.00h102.00v6.00h-102.00zM417.85 305.00h24.00v6.00h-24.00zM447.85 305.00h18.00v6.00h-18.00zM207.85 311.00h6.00v6.00h-6.00zM255.85 311.00h18.00v6.00h-18.00zM279.85 311.00h18.00v6.00h-18.00zM303.85 311.00h36.00v6.00h-36.00zM345.85 311.00h12.00v6.00h-12.00zM363.85 311.00h48.00v6.00h-48.00zM429.85 311.00h18.00v6.00h-18.00zM459.85 311.00h12.00v6.00h-12.00zM201.85 317.00h6.00v6.00h-6.00zM249.85 317.00h18.00v6.00h-18.00zM273.85 317.00h18.00v6.00h-18.00zM303.85 317.00h36.00v6.00h-36.00zM345.85 317.00h12.00v6.00h-12.00zM363.85 317.00h12.00v6.00h-12.00zM381.85 317.00h30.00v6.00h-30.00zM435.85 317.00h18.00v6.00h-18.00zM465.85 317.00h18.00v6.00h-18.00zM243.85 323.00h18.00v6.00h-18.00zM267.85 323.00h12.00v6.00h-12.00zM303.85 323.00h30.00v6.00h-30.00zM345.85 323.00h12.00v6.00h-12.00zM363.85 323.00h12.00v6.00h-12.00zM381.85 323.00h18.00v6.00h-18.00zM405.85 323.00h12.00v6.00h-12.00zM441.85 323.00h18.00v6.00h-18.00zM477.85 323.00h24.00v6.00h-24.00zM237.85 329.00h18.00v6.00h-18.00zM267.85 329.00h12.00v6.00h-12.00zM297.85 329.00h18.00v6.00h-18.00zM321.85 329.00h12.00v6.00h-12.00zM345.85 329.00h12.00v6.00h-12.00zM363.85 329.00h12.00v6.00h-12.00zM387.85 329.00h30.00v6.00h-30.00zM447.85 329.00h18.00v6.00h-18.00zM231.85 335.00h18.00v6.00h-18.00zM261.85 335.00h12.00v6.00h-12.00zM297.85 335.00h30.00v6.00h-30.00zM345.85 335.00h12.00v6.00h-12.00zM363.85 335.00h12.00v6.00h-12.00zM387.85 335.00h18.00v6.00h-18.00zM411.85 335.00h12.00v6.00h-12.00zM453.85 335.00h18.00v6.00h-18.00zM231.85 341.00h12.00v6.00h-12.00zM255.85 341.00h12.00v6.00h-12.00zM297.85 341.00h12.00v6.00h-12.00zM315.85 341.00h12.00v6.00h-12.00zM345.85 341.00h12.00v6.00h-12.00zM363.85 341.00h12.00v6.00h-12.00zM393.85 341.00h12.00v6.00h-12.00zM411.85 341.00h12.00v6.00h-12.00zM459.85 341.00h12.00v6.00h-12.00zM225.85 347.00h6.00v6.00h-6.00zM255.85 347.00h6.00v6.00h-6.00zM291.85 347.00h18.00v6.00h-18.00zM315.85 347.00h6.00v6.00h-6.00zM345.85 347.00h12.00v6.00h-12.00zM363.85 347.00h12.00v6.00h-12.00zM393.85 347.00h18.00v6.00h-18.00zM417.85 347.00h12.00v6.00h-12.00zM471.85 347.00h6.00v6.00h-6.00zM249.85 353.00h12.00v6.00h-12.00zM291.85 353.00h12.00v6.00h-12.00zM309.85 353.00h12.00v6.00h-12.00zM345.85 353.00h12.00v6.00h-12.00zM363.85 353.00h12.00v6.00h-12.00zM399.85 353.00h12.00v6.00h-12.00zM417.85 353.00h12.00v6.00h-12.00zM249.85 359.00h6.00v6.00h-6.00zM291.85 359.00h12.00v6.00h-12.00zM309.85 359.00h12.00v6.00h-12.00zM345.85 359.00h12.00v6.00h-12.00zM363.85 359.00h12.00v6.00h-12.00zM399.85 359.00h12.00v6.00h-12.00zM423.85 359.00h12.00v6.00h-12.00zM249.85 365.00h6.00v6.00h-6.00zM285.85 365.00h12.00v6.00h-12.00zM309.85 365.00h6.00v6.00h-6.00zM345.85 365.00h12.00v6.00h-12.00zM363.85 365.00h12.00v6.00h-12.00zM405.85 365.00h12.00v6.00h-12.00zM435.85 365.00h6.00v6.00h-6.00zM249.85 371.00h6.00v6.00h-6.00zM285.85 371.00h12.00v6.00h-12.00zM309.85 371.00h6.00v6.00h-6.00zM345.85 371.00h12.00v6.00h-12.00zM363.85 371.00h12.00v6.00h-12.00zM405.85 371.00h12.00v6.00h-12.00zM441.85 371.00h6.00v6.00h-6.00zM285.85 377.00h6.00v6.00h-6.00zM309.85 377.00h6.00v6.00h-6.00zM345.85 377.00h12.00v6.00h-12.00zM369.85 377.00h6.00v6.00h-6.00zM411.85 377.00h6.00v6.00h-6.00zM285.85 383.00h6.00v6.00h-6.00zM309.85 383.00h6.00v6.00h-6.00zM345.85 383.00h12.00v6.00h-12.00zM369.85 383.00h12.00v6.00h-12.00zM411.85 383.00h6.00v6.00h-6.00zM279.85 389.00h6.00v6.00h-6.00zM309.85 389.00h6.00v6.00h-6.00zM345.85 389.00h12.00v6.00h-12.00zM375.85 389.00h6.00v6.00h-6.00zM417.85 389.00h6.00v6.00h-6.00zM345.85 395.00h12.00v6.00h-12.00zM381.85 395.00h6.00v6.00h-6.00z"></path>
  <g transform="translate(186.99 584.88) scale(1.16)"><path d="M79.07-27.91L79.07-32.56L83.72-32.56L83.72-97.67L79.07-97.67L79.07-102.33L65.12-102.33L65.12-97.67L69.77-97.67L69.77-93.02L74.42-93.02L74.42-27.91L79.07-27.91ZM4.65 0L4.65-9.30L9.30-9.30L9.30-13.95L13.95-13.95L13.95-18.60L18.60-18.60L18.60-23.26L55.81-23.26L55.81-18.60L60.47-18.60L60.47-13.95L65.12-13.95L65.12-88.37L60.47-88.37L60.47-93.02L55.81-93.02L55.81-32.56L37.21-32.56L37.21-51.16L18.60-51.16L18.60-60.47L37.21-60.47L37.21-69.77L18.60-69.77L18.60-79.07L37.21-79.07L37.21-88.37L32.56-88.37L32.56-93.02L27.91-93.02L27.91-97.67L13.95-97.67L13.95-102.33L9.30-102.33L9.30-106.98L4.65-106.98L4.65-116.28L9.30-116.28L9.30-111.63L13.95-111.63L13.95-106.98L18.60-106.98L18.60-111.63L23.26-111.63L23.26-116.28L41.86-116.28L41.86-111.63L46.51-111.63L46.51-106.98L51.16-106.98L51.16-102.33L60.47-102.33L60.47-106.98L65.12-106.98L65.12-111.63L69.77-111.63L69.77-116.28L88.37-116.28L88.37-111.63L93.02-111.63L93.02-106.98L106.98-106.98L106.98-111.63L111.63-111.63L111.63-116.28L116.28-116.28L116.28-106.98L111.63-106.98L111.63-102.33L106.98-102.33L106.98-97.67L102.33-97.67L102.33-41.86L97.67-41.86L97.67-37.21L93.02-37.21L93.02-32.56L88.37-32.56L88.37-27.91L83.72-27.91L83.72-23.26L79.07-23.26L79.07-18.60L74.42-18.60L74.42-13.95L69.77-13.95L69.77-9.30L65.12-9.30L65.12-4.65L60.47-4.65L60.47 0L37.21 0L37.21-4.65L32.56-4.65L32.56-9.30L13.95-9.30L13.95-4.65L9.30-4.65L9.30 0L4.65 0ZM116.28-9.30L116.28-18.60L125.58-18.60L125.58-60.47L130.23-60.47L130.23-65.12L134.88-65.12L134.88-69.77L139.53-69.77L139.53-74.42L144.19-74.42L144.19-79.07L172.09-79.07L172.09-74.42L176.74-74.42L176.74-69.77L190.70-69.77L190.70-60.47L181.40-60.47L181.40-23.26L176.74-23.26L176.74-18.60L172.09-18.60L172.09-13.95L167.44-13.95L167.44-9.30L162.79-9.30L162.79-4.65L158.14-4.65L158.14 0L134.88 0L134.88-4.65L130.23-4.65L130.23-9.30L116.28-9.30ZM144.19-69.77L144.19-18.60L162.79-18.60L162.79-60.47L158.14-60.47L158.14-65.12L153.49-65.12L153.49-69.77L144.19-69.77ZM200.00-4.65L200.00-9.30L195.35-9.30L195.35-18.60L200.00-18.60L200.00-13.95L204.65-13.95L204.65-9.30L209.30-9.30L209.30-13.95L213.95-13.95L213.95-18.60L218.60-18.60L218.60-23.26L223.26-23.26L223.26-46.51L218.60-46.51L218.60-51.16L213.95-51.16L213.95-55.81L209.30-55.81L209.30-60.47L204.65-60.47L204.65-65.12L209.30-65.12L209.30-69.77L213.95-69.77L213.95-74.42L218.60-74.42L218.60-79.07L223.26-79.07L223.26-74.42L227.91-74.42L227.91-69.77L232.56-69.77L232.56-65.12L237.21-65.12L237.21-69.77L241.86-69.77L241.86-74.42L246.51-74.42L246.51-79.07L251.16-79.07L251.16-74.42L255.81-74.42L255.81-69.77L265.12-69.77L265.12-74.42L269.77-74.42L269.77-79.07L274.42-79.07L274.42-69.77L269.77-69.77L269.77-65.12L265.12-65.12L265.12-60.47L260.47-60.47L260.47-55.81L255.81-55.81L255.81-51.16L241.86-51.16L241.86-18.60L251.16-18.60L251.16-23.26L255.81-23.26L255.81-27.91L260.47-27.91L260.47-18.60L255.81-18.60L255.81-13.95L251.16-13.95L251.16-9.30L246.51-9.30L246.51-4.65L241.86-4.65L241.86 0L237.21 0L237.21-4.65L232.56-4.65L232.56-9.30L223.26-9.30L223.26-4.65L218.60-4.65L218.60 0L204.65 0L204.65-4.65L200.00-4.65Z"></path></g>
  <g transform="translate(38.62 741.77) scale(1.16)"><path d="M4.65 0L4.65-9.30L9.30-9.30L9.30-13.95L13.95-13.95L13.95-18.60L18.60-18.60L18.60-23.26L27.91-23.26L27.91-27.91L32.56-27.91L32.56-32.56L37.21-32.56L37.21-37.21L41.86-37.21L41.86-41.86L46.51-41.86L46.51-46.51L51.16-46.51L51.16-69.77L46.51-69.77L46.51-74.42L41.86-74.42L41.86-79.07L37.21-79.07L37.21-74.42L32.56-74.42L32.56-69.77L27.91-69.77L27.91-79.07L32.56-79.07L32.56-83.72L37.21-83.72L37.21-88.37L41.86-88.37L41.86-93.02L46.51-93.02L46.51-97.67L51.16-97.67L51.16-93.02L55.81-93.02L55.81-88.37L60.47-88.37L60.47-83.72L65.12-83.72L65.12-51.16L74.42-51.16L74.42-88.37L69.77-88.37L69.77-93.02L65.12-93.02L65.12-97.67L60.47-97.67L60.47-102.33L55.81-102.33L55.81-106.98L32.56-106.98L32.56-102.33L27.91-102.33L27.91-97.67L23.26-97.67L23.26-93.02L18.60-93.02L18.60-88.37L13.95-88.37L13.95-83.72L9.30-83.72L9.30-93.02L13.95-93.02L13.95-97.67L18.60-97.67L18.60-102.33L23.26-102.33L23.26-106.98L27.91-106.98L27.91-111.63L32.56-111.63L32.56-116.28L74.42-116.28L74.42-111.63L79.07-111.63L79.07-106.98L83.72-106.98L83.72-102.33L93.02-102.33L93.02-106.98L97.67-106.98L97.67-111.63L102.33-111.63L102.33-116.28L111.63-116.28L111.63-111.63L116.28-111.63L116.28-106.98L120.93-106.98L120.93-102.33L125.58-102.33L125.58-97.67L120.93-97.67L120.93-93.02L116.28-93.02L116.28-88.37L111.63-88.37L111.63-93.02L106.98-93.02L106.98-97.67L102.33-97.67L102.33-102.33L97.67-102.33L97.67-97.67L93.02-97.67L93.02-13.95L106.98-13.95L106.98-18.60L111.63-18.60L111.63-23.26L116.28-23.26L116.28-13.95L111.63-13.95L111.63-9.30L106.98-9.30L106.98-4.65L102.33-4.65L102.33 0L83.72 0L83.72-4.65L79.07-4.65L79.07-9.30L74.42-9.30L74.42-46.51L69.77-46.51L69.77-41.86L55.81-41.86L55.81-37.21L51.16-37.21L51.16-32.56L46.51-32.56L46.51-27.91L41.86-27.91L41.86-23.26L37.21-23.26L37.21-18.60L41.86-18.60L41.86-13.95L55.81-13.95L55.81-18.60L60.47-18.60L60.47-23.26L65.12-23.26L65.12-13.95L60.47-13.95L60.47-9.30L55.81-9.30L55.81-4.65L51.16-4.65L51.16 0L32.56 0L32.56-4.65L27.91-4.65L27.91-9.30L13.95-9.30L13.95-4.65L9.30-4.65L9.30 0L4.65 0ZM162.79-4.65L162.79 0L148.84 0L148.84-9.30L134.88-9.30L134.88-18.60L144.19-18.60L144.19-60.47L134.88-60.47L134.88-65.12L139.53-65.12L139.53-69.77L144.19-69.77L144.19-74.42L148.84-74.42L148.84-79.07L158.14-79.07L158.14-74.42L162.79-74.42L162.79-18.60L181.40-18.60L181.40-60.47L172.09-60.47L172.09-69.77L181.40-69.77L181.40-74.42L186.05-74.42L186.05-79.07L195.35-79.07L195.35-74.42L200-74.42L200-69.77L209.30-69.77L209.30-60.47L200-60.47L200-18.60L209.30-18.60L209.30-13.95L204.65-13.95L204.65-9.30L200-9.30L200-4.65L195.35-4.65L195.35 0L181.40 0L181.40-9.30L167.44-9.30L167.44-4.65L162.79-4.65ZM274.42-65.12L274.42-83.72L283.72-83.72L283.72-65.12L274.42-65.12ZM241.86-18.60L241.86-13.95L255.81-13.95L255.81-18.60L260.47-18.60L260.47-37.21L251.16-37.21L251.16-32.56L246.51-32.56L246.51-27.91L241.86-27.91L241.86-23.26L237.21-23.26L237.21-18.60L241.86-18.60ZM213.95 0L213.95-9.30L218.60-9.30L218.60-13.95L223.26-13.95L223.26-18.60L227.91-18.60L227.91-23.26L232.56-23.26L232.56-27.91L237.21-27.91L237.21-32.56L227.91-32.56L227.91-37.21L223.26-37.21L223.26-60.47L227.91-60.47L227.91-65.12L232.56-65.12L232.56-69.77L241.86-69.77L241.86-51.16L246.51-51.16L246.51-46.51L251.16-46.51L251.16-51.16L255.81-51.16L255.81-55.81L260.47-55.81L260.47-60.47L255.81-60.47L255.81-65.12L251.16-65.12L251.16-69.77L241.86-69.77L241.86-79.07L260.47-79.07L260.47-74.42L265.12-74.42L265.12-69.77L269.77-69.77L269.77-65.12L274.42-65.12L274.42-55.81L269.77-55.81L269.77-51.16L265.12-51.16L265.12-46.51L274.42-46.51L274.42-41.86L279.07-41.86L279.07-23.26L274.42-23.26L274.42-18.60L269.77-18.60L269.77-13.95L265.12-13.95L265.12-9.30L260.47-9.30L260.47-4.65L255.81-4.65L255.81 0L237.21 0L237.21-4.65L232.56-4.65L232.56-9.30L223.26-9.30L223.26-4.65L218.60-4.65L218.60 0L213.95 0ZM293.02-9.30L293.02-18.60L302.33-18.60L302.33-69.77L293.02-69.77L293.02-79.07L302.33-79.07L302.33-93.02L306.98-93.02L306.98-97.67L311.63-97.67L311.63-102.33L316.28-102.33L316.28-106.98L320.93-106.98L320.93-79.07L339.53-79.07L339.53-69.77L320.93-69.77L320.93-18.60L339.53-18.60L339.53-13.95L334.88-13.95L334.88-9.30L330.23-9.30L330.23-4.65L325.58-4.65L325.58 0L311.63 0L311.63-9.30L293.02-9.30ZM348.84-9.30L348.84-18.60L358.14-18.60L358.14-60.47L348.84-60.47L348.84-69.77L353.49-69.77L353.49-74.42L358.14-74.42L358.14-79.07L367.44-79.07L367.44-69.77L372.09-69.77L372.09-74.42L376.74-74.42L376.74-79.07L400-79.07L400-74.42L404.65-74.42L404.65-60.47L390.70-60.47L390.70-65.12L386.05-65.12L386.05-69.77L381.40-69.77L381.40-65.12L376.74-65.12L376.74-18.60L381.40-18.60L381.40-9.30L376.74-9.30L376.74-4.65L372.09-4.65L372.09 0L358.14 0L358.14-9.30L348.84-9.30ZM437.21-69.77L437.21-18.60L455.81-18.60L455.81-69.77L437.21-69.77ZM409.30-9.30L409.30-18.60L418.60-18.60L418.60-60.47L423.26-60.47L423.26-65.12L427.91-65.12L427.91-69.77L432.56-69.77L432.56-74.42L437.21-74.42L437.21-79.07L465.12-79.07L465.12-74.42L469.77-74.42L469.77-69.77L483.72-69.77L483.72-60.47L474.42-60.47L474.42-18.60L483.72-18.60L483.72-9.30L479.07-9.30L479.07-4.65L474.42-4.65L474.42 0L460.47 0L460.47-9.30L451.16-9.30L451.16-4.65L446.51-4.65L446.51 0L427.91 0L427.91-4.65L423.26-4.65L423.26-9.30L409.30-9.30ZM493.02-9.30L493.02-18.60L502.33-18.60L502.33-102.33L506.98-102.33L506.98-106.98L511.63-106.98L511.63-111.63L516.28-111.63L516.28-116.28L520.93-116.28L520.93-18.60L530.23-18.60L530.23-13.95L525.58-13.95L525.58-9.30L520.93-9.30L520.93-4.65L516.28-4.65L516.28 0L502.33 0L502.33-9.30L493.02-9.30Z"></path></g>
</svg>